<svg version="1.1" id="Layer_1" xmlns="http://www.w3.org/2000/svg" xmlns:xlink="http://www.w3.org/1999/xlink" x="0px" y="0px"
	 width="100%" viewBox="0 0 286 103" enable-background="new 0 0 286 103" xml:space="preserve">
<path fill="#000000" opacity="1.000000" stroke="none" 
	d="
M1.000000,42.000000 
	C1.000000,28.380581 1.000000,14.761163 1.000000,1.000000 
	C29.354084,1.000000 57.708382,1.000000 86.832245,1.263439 
	C87.368469,2.001602 87.135139,2.476326 86.504150,2.978135 
	C81.785477,2.782672 79.314987,5.285057 76.682152,9.757218 
	C80.794296,9.109471 83.922211,8.616761 87.493439,8.073533 
	C90.611519,7.957116 93.286285,7.891217 96.335739,7.899635 
	C97.470490,7.926320 98.230537,7.878687 99.398972,7.906941 
	C101.189461,8.026861 102.571564,8.070895 104.159966,8.450876 
	C106.212669,8.876707 108.059074,8.966590 110.051338,9.345740 
	C111.434944,10.436143 112.672691,11.237278 114.050812,12.324673 
	C115.424133,13.757621 116.657082,14.904309 118.055359,16.381556 
	C118.816780,18.149889 119.200836,19.738760 120.081085,20.974043 
	C120.701668,21.844931 121.995895,22.235785 123.402061,22.905182 
	C125.203255,22.919189 126.591759,22.868977 128.352905,22.884769 
	C129.478699,22.908104 130.231842,22.865431 131.316711,22.882607 
	C132.095139,22.908895 132.541855,22.875332 133.399796,22.901161 
	C134.868103,21.970909 136.943436,20.789482 136.799637,20.026007 
	C136.277252,17.252335 135.011673,14.618635 133.899170,11.650331 
	C132.863129,10.542725 131.954269,9.716934 130.910461,8.615887 
	C129.865036,7.538994 128.954559,6.737360 128.023773,5.964843 
	C128.003448,5.993961 128.069153,5.966985 127.977448,5.735972 
	C127.677650,5.177302 127.387535,5.068592 126.732590,5.042245 
	C125.628128,4.325186 124.806473,3.744714 123.634552,3.106474 
	C122.170334,2.757487 121.056366,2.466267 119.706749,1.869029 
	C119.647400,1.375341 119.823700,1.187670 120.000000,1.000000 
	C175.553177,1.000000 231.106369,1.000000 287.000000,1.000000 
	C287.000000,16.685919 287.000000,32.374302 286.652802,48.637592 
	C285.279724,48.386509 284.182159,47.634567 283.239746,46.722336 
	C277.754456,41.412720 269.551880,40.184277 264.347290,42.960022 
	C257.215240,41.034645 251.291641,42.361660 245.291351,42.159111 
	C245.291351,57.959988 245.291351,73.193619 245.291351,89.365211 
	C251.113205,88.912186 256.601379,88.485115 262.391388,87.762474 
	C262.737549,76.678040 262.781891,65.889183 263.003448,54.796875 
	C266.081879,52.290134 268.268860,53.393093 270.082397,56.328758 
	C270.088684,57.106380 270.144562,57.550358 270.160309,58.461525 
	C270.153259,68.615936 270.186340,78.303169 270.226501,88.220253 
	C270.397522,88.763351 270.654633,88.895454 271.468445,88.901276 
	C276.954712,88.970749 281.977356,88.985374 287.000000,89.000000 
	C287.000000,93.993690 287.000000,98.987381 287.000000,103.940239 
	C191.666641,103.940239 96.333305,103.940239 1.000000,103.940239 
	C1.000000,88.899422 1.000000,73.918373 1.436934,58.469635 
	C5.173656,57.471474 6.204250,58.905064 6.073219,62.155540 
	C5.845335,67.808617 6.010329,73.477531 6.010380,79.139801 
	C6.010479,90.069778 6.428831,90.402565 17.734840,90.026711 
	C22.012878,89.884491 24.356621,88.683037 24.103865,83.622116 
	C23.684072,75.216621 23.989557,66.774895 23.989557,58.257221 
	C27.339529,58.056839 29.945267,57.900978 33.045986,57.715508 
	C33.045986,52.360859 33.045986,47.295670 33.045986,42.175014 
	C29.498938,42.018826 26.900597,41.904411 24.212843,41.786064 
	C23.814617,37.420395 25.880896,35.639778 29.449627,34.968632 
	C32.299355,34.432701 36.930016,24.909479 35.570705,22.464228 
	C35.341633,22.052149 34.929211,21.535522 34.527199,21.459351 
	C31.789024,20.940525 28.914297,19.792839 26.299894,20.208452 
	C16.040382,21.839417 8.805190,27.556099 6.322147,37.870609 
	C5.487388,41.338181 4.103203,42.323483 1.000000,42.000000 
M77.673485,87.502754 
	C77.705879,77.023796 77.738281,66.544838 77.960831,55.371452 
	C80.749054,51.521347 82.992203,53.461365 85.051384,56.971497 
	C85.034088,66.248718 84.975624,75.526253 85.045067,84.802826 
	C85.055168,86.152695 85.676628,87.497986 86.943504,88.955559 
	C92.197189,88.955559 97.450874,88.955559 102.996140,88.955559 
	C102.996140,78.183067 102.684998,68.190704 103.085426,58.226940 
	C103.470123,48.654938 92.038391,37.156876 80.376350,42.890308 
	C79.525063,43.308838 78.480606,43.711353 77.586998,43.605598 
	C71.920105,42.934952 66.270401,42.119064 60.448029,41.328392 
	C60.448029,58.030724 60.448029,73.390472 60.448029,89.430511 
	C66.307083,88.957550 71.680130,88.523819 77.673485,87.502754 
M188.139359,81.180611 
	C188.946060,83.790298 189.752747,86.399979 190.556015,88.998550 
	C195.087738,88.998550 199.095413,88.788887 203.069656,89.063477 
	C206.376740,89.291977 207.745819,87.888008 208.622879,84.869400 
	C211.972626,73.340408 215.473602,61.854076 219.039108,50.389442 
	C222.042084,40.733597 221.270370,40.168121 211.157150,41.657906 
	C206.885666,42.287136 205.195831,43.425995 204.770874,47.769844 
	C204.418182,51.374798 202.739899,54.850063 201.178986,59.904205 
	C199.653351,53.053589 198.456100,47.677567 197.155945,41.839428 
	C191.611206,41.839428 186.057465,41.839428 180.316925,41.839428 
	C178.779755,47.495594 177.186951,53.356434 175.594147,59.217278 
	C174.505447,57.455566 174.300522,55.705200 173.987396,53.974407 
	C173.374039,50.583969 172.840332,47.167645 171.966278,43.842842 
	C171.704636,42.847530 170.401443,41.370064 169.611649,41.392429 
	C164.540405,41.536026 159.479233,42.035316 154.379700,42.420387 
	C157.736420,57.925697 161.061768,73.286095 164.463272,88.998329 
	C169.152710,88.998329 173.631256,88.843811 178.092987,89.051254 
	C181.201309,89.195763 182.555511,87.990074 183.036728,84.956558 
	C183.705963,80.737785 184.761963,76.580368 185.652405,72.396683 
	C186.001236,72.463837 186.350067,72.530983 186.698883,72.598137 
	C187.145630,75.181999 187.592361,77.765869 188.139359,81.180611 
M144.519043,59.003548 
	C147.273682,59.003548 150.028336,59.003548 152.620056,59.003548 
	C152.620056,52.571747 152.620056,46.854565 152.620056,40.853889 
	C147.308090,40.853889 142.369308,40.853889 137.022202,40.853889 
	C137.022202,36.781727 136.478531,32.898582 137.167999,29.248352 
	C137.928070,25.224392 136.231415,24.715502 133.121353,25.009298 
	C129.155518,25.383936 125.192810,25.791513 120.335938,26.273489 
	C120.253975,28.025955 120.087997,30.568029 120.029228,33.112579 
	C119.969688,35.690968 120.016113,38.271801 120.016113,41.007149 
	C118.445892,41.007149 117.623726,40.999813 116.801720,41.008240 
	C103.093361,41.148781 103.159752,41.145535 103.940971,55.222839 
	C104.094261,57.985203 105.042213,59.117413 107.809662,59.032917 
	C111.746208,58.912727 115.689156,59.002373 120.129395,59.002373 
	C120.129395,63.547825 120.129395,67.614166 120.129395,71.701241 
	C126.304222,71.701241 131.958466,71.701241 137.315063,71.701241 
	C137.315063,67.359375 137.315063,63.315529 137.315063,59.003548 
	C139.603546,59.003548 141.576385,59.003548 144.519043,59.003548 
M47.433811,88.999397 
	C48.265663,88.999344 49.114368,88.890800 49.926609,89.016975 
	C54.904160,89.790192 56.128487,87.458717 56.021317,82.796051 
	C55.746143,70.823700 56.036606,58.838707 55.802670,46.864594 
	C55.770817,45.234154 54.166981,42.360683 53.062061,42.244759 
	C48.198704,41.734512 43.251396,42.024494 38.316246,42.024494 
	C38.316246,58.021973 38.316246,73.248047 38.316246,88.999397 
	C41.238697,88.999397 43.857853,88.999397 47.433811,88.999397 
M223.002167,68.499832 
	C223.002167,75.241859 223.002167,81.983887 223.002167,88.638992 
	C229.099472,88.638992 234.339325,88.638992 239.990463,88.638992 
	C239.990463,73.670784 240.064117,59.057529 239.849289,44.448509 
	C239.832291,43.292046 237.891678,41.286407 236.710709,41.181046 
	C232.310760,40.788502 227.854736,41.024326 223.002167,41.024326 
	C223.002167,50.261345 223.002167,58.880611 223.002167,68.499832 
M139.068863,79.228287 
	C137.935104,77.825249 136.901855,75.326225 135.649979,75.211441 
	C130.593399,74.747826 125.469467,75.019165 120.461266,75.019165 
	C119.443230,84.172386 125.233116,92.338615 133.340912,93.924538 
	C142.650711,95.745590 152.813171,90.315857 154.672516,82.181053 
	C149.449112,82.233673 143.732224,85.198494 139.068863,79.228287 
M54.999294,26.860371 
	C55.105999,25.153074 55.212700,23.445780 55.341064,21.391884 
	C49.463402,21.391884 43.806332,21.391884 38.259232,21.391884 
	C38.259232,27.395552 38.259232,33.000870 38.259232,38.763935 
	C44.275242,38.763935 50.034019,38.763935 54.999245,38.763935 
	C54.999245,34.935371 54.999245,31.349417 54.999294,26.860371 
M240.003555,24.730965 
	C239.288055,23.502825 238.641083,21.265646 237.845856,21.211653 
	C232.983688,20.881517 228.087906,21.046547 223.372284,21.046547 
	C223.372284,27.452208 223.372284,33.004810 223.372284,38.533146 
	C229.088913,38.533146 234.423294,38.533146 240.005783,38.533146 
	C240.005783,33.944744 240.005783,29.811415 240.003555,24.730965 
M64.314995,15.035895 
	C69.195351,15.666987 72.431129,13.303243 75.918526,8.999732 
	C73.448425,8.999732 71.979233,8.619708 70.843170,9.073558 
	C67.865013,10.263306 63.973965,10.527205 64.314995,15.035895 
z"/>
<path fill="#273E89" opacity="1.000000" stroke="none" 
	d="
M270.219452,87.990395 
	C270.186340,78.303169 270.153259,68.615936 270.337982,58.293327 
	C270.414551,57.103672 270.273285,56.549397 270.132019,55.995121 
	C268.268860,53.393093 266.081879,52.290134 262.749481,55.106773 
	C262.242096,66.499428 262.165833,77.278740 262.089569,88.058052 
	C256.601379,88.485115 251.113205,88.912186 245.291351,89.365211 
	C245.291351,73.193619 245.291351,57.959988 245.291351,42.159111 
	C251.291641,42.361660 257.215240,41.034645 264.347290,42.960022 
	C269.551880,40.184277 277.754456,41.412720 283.239746,46.722336 
	C284.182159,47.634567 285.279724,48.386509 286.652802,49.106251 
	C287.000000,62.020893 287.000000,75.041786 287.000000,88.531342 
	C281.977356,88.985374 276.954712,88.970749 271.370605,88.730453 
	C270.654175,88.285614 270.457642,88.114151 270.219452,87.990395 
z"/>
<path fill="#273D89" opacity="1.000000" stroke="none" 
	d="
M1.000000,42.466862 
	C4.103203,42.323483 5.487388,41.338181 6.322147,37.870609 
	C8.805190,27.556099 16.040382,21.839417 26.299894,20.208452 
	C28.914297,19.792839 31.789024,20.940525 34.527199,21.459351 
	C34.929211,21.535522 35.341633,22.052149 35.570705,22.464228 
	C36.930016,24.909479 32.299355,34.432701 29.449627,34.968632 
	C25.880896,35.639778 23.814617,37.420395 24.212843,41.786064 
	C26.900597,41.904411 29.498938,42.018826 33.045986,42.175014 
	C33.045986,47.295670 33.045986,52.360859 33.045986,57.715508 
	C29.945267,57.900978 27.339529,58.056839 23.989557,58.257221 
	C23.989557,66.774895 23.684072,75.216621 24.103865,83.622116 
	C24.356621,88.683037 22.012878,89.884491 17.734840,90.026711 
	C6.428831,90.402565 6.010479,90.069778 6.010380,79.139801 
	C6.010329,73.477531 5.845335,67.808617 6.073219,62.155540 
	C6.204250,58.905064 5.173656,57.471474 1.436934,58.000977 
	C1.000000,52.977909 1.000000,47.955814 1.000000,42.466862 
z"/>
<path fill="#6A6EA6" opacity="1.000000" stroke="none" 
	d="
M117.890022,16.050999 
	C116.657082,14.904309 115.424133,13.757621 114.395462,12.126844 
	C115.066490,8.095171 115.533249,4.547585 116.000000,1.000000 
	C117.066673,1.000000 118.133339,1.000000 119.600006,1.000000 
	C119.823700,1.187670 119.647400,1.375341 119.724182,2.321281 
	C119.984291,6.162539 120.195732,9.265197 119.901863,12.319233 
	C119.777122,13.615679 118.592789,14.810171 117.890022,16.050999 
z"/>
<path fill="#787AAD" opacity="1.000000" stroke="none" 
	d="
M115.583336,1.000000 
	C115.533249,4.547585 115.066490,8.095171 114.255081,11.840585 
	C112.672691,11.237278 111.434944,10.436143 110.342911,9.064619 
	C110.659081,5.996153 110.829536,3.498076 111.000000,1.000000 
	C112.388893,1.000000 113.777779,1.000000 115.583336,1.000000 
z"/>
<path fill="#8688B6" opacity="1.000000" stroke="none" 
	d="
M110.571533,1.000000 
	C110.829536,3.498076 110.659081,5.996153 110.197044,8.775352 
	C108.059074,8.966590 106.212669,8.876707 104.319084,8.083838 
	C104.514603,5.253902 104.757301,3.126951 105.000000,1.000000 
	C106.714355,1.000000 108.428719,1.000000 110.571533,1.000000 
z"/>
<path fill="#B1B2CF" opacity="1.000000" stroke="none" 
	d="
M86.901802,2.951050 
	C87.135139,2.476326 87.368469,2.001602 87.300903,1.263439 
	C89.041664,1.000000 91.083336,1.000000 93.562386,1.397053 
	C94.653526,3.804511 95.307289,5.814915 95.961044,7.825318 
	C93.286285,7.891217 90.611519,7.957116 87.515480,7.713881 
	C87.030067,5.920180 86.965935,4.435616 86.901802,2.951050 
z"/>
<path fill="#9597BF" opacity="1.000000" stroke="none" 
	d="
M104.583336,1.000000 
	C104.757301,3.126951 104.514603,5.253902 104.112778,7.747890 
	C102.571564,8.070895 101.189461,8.026861 99.413208,7.523820 
	C99.346024,5.043209 99.673012,3.021604 100.000000,1.000000 
	C101.388893,1.000000 102.777779,1.000000 104.583336,1.000000 
z"/>
<path fill="#A2A3C5" opacity="1.000000" stroke="none" 
	d="
M99.571533,1.000000 
	C99.673012,3.021604 99.346024,5.043209 99.004814,7.447934 
	C98.230537,7.878687 97.470490,7.926320 96.335739,7.899635 
	C95.307289,5.814915 94.653526,3.804511 93.999886,1.397053 
	C95.714355,1.000000 97.428719,1.000000 99.571533,1.000000 
z"/>
<path fill="#273D89" opacity="1.000000" stroke="none" 
	d="
M188.089233,80.765167 
	C187.592361,77.765869 187.145630,75.181999 186.698883,72.598137 
	C186.350067,72.530983 186.001236,72.463837 185.652405,72.396683 
	C184.761963,76.580368 183.705963,80.737785 183.036728,84.956558 
	C182.555511,87.990074 181.201309,89.195763 178.092987,89.051254 
	C173.631256,88.843811 169.152710,88.998329 164.463272,88.998329 
	C161.061768,73.286095 157.736420,57.925697 154.379700,42.420387 
	C159.479233,42.035316 164.540405,41.536026 169.611649,41.392429 
	C170.401443,41.370064 171.704636,42.847530 171.966278,43.842842 
	C172.840332,47.167645 173.374039,50.583969 173.987396,53.974407 
	C174.300522,55.705200 174.505447,57.455566 175.594147,59.217278 
	C177.186951,53.356434 178.779755,47.495594 180.316925,41.839428 
	C186.057465,41.839428 191.611206,41.839428 197.155945,41.839428 
	C198.456100,47.677567 199.653351,53.053589 201.178986,59.904205 
	C202.739899,54.850063 204.418182,51.374798 204.770874,47.769844 
	C205.195831,43.425995 206.885666,42.287136 211.157150,41.657906 
	C221.270370,40.168121 222.042084,40.733597 219.039108,50.389442 
	C215.473602,61.854076 211.972626,73.340408 208.622879,84.869400 
	C207.745819,87.888008 206.376740,89.291977 203.069656,89.063477 
	C199.095413,88.788887 195.087738,88.998550 190.556015,88.998550 
	C189.752747,86.399979 188.946060,83.790298 188.089233,80.765167 
z"/>
<path fill="#283E89" opacity="1.000000" stroke="none" 
	d="
M85.174248,56.050510 
	C82.992203,53.461365 80.749054,51.521347 77.629349,56.044582 
	C77.216309,67.175171 77.134743,77.632637 77.053177,88.090096 
	C71.680130,88.523819 66.307083,88.957550 60.448029,89.430511 
	C60.448029,73.390472 60.448029,58.030724 60.448029,41.328392 
	C66.270401,42.119064 71.920105,42.934952 77.586998,43.605598 
	C78.480606,43.711353 79.525063,43.308838 80.376350,42.890308 
	C92.038391,37.156876 103.470123,48.654938 103.085426,58.226940 
	C102.684998,68.190704 102.996140,78.183067 102.996140,88.955559 
	C97.450874,88.955559 92.197189,88.955559 86.474548,88.444626 
	C86.003670,81.843750 86.104622,75.751465 85.965965,69.664642 
	C85.862518,65.122940 85.449440,60.588299 85.174248,56.050510 
z"/>
<path fill="#59ADDA" opacity="1.000000" stroke="none" 
	d="
M144.034149,59.003548 
	C141.576385,59.003548 139.603546,59.003548 137.315063,59.003548 
	C137.315063,63.315529 137.315063,67.359375 137.315063,71.701241 
	C131.958466,71.701241 126.304222,71.701241 120.129395,71.701241 
	C120.129395,67.614166 120.129395,63.547825 120.129395,59.002373 
	C115.689156,59.002373 111.746208,58.912727 107.809662,59.032917 
	C105.042213,59.117413 104.094261,57.985203 103.940971,55.222839 
	C103.159752,41.145535 103.093361,41.148781 116.801720,41.008240 
	C117.623726,40.999813 118.445892,41.007149 120.016113,41.007149 
	C120.016113,38.271801 119.969688,35.690968 120.029228,33.112579 
	C120.087997,30.568029 120.253975,28.025955 120.335938,26.273489 
	C125.192810,25.791513 129.155518,25.383936 133.121353,25.009298 
	C136.231415,24.715502 137.928070,25.224392 137.167999,29.248352 
	C136.478531,32.898582 137.022202,36.781727 137.022202,40.853889 
	C142.369308,40.853889 147.308090,40.853889 152.620056,40.853889 
	C152.620056,46.854565 152.620056,52.571747 152.620056,59.003548 
	C150.028336,59.003548 147.273682,59.003548 144.034149,59.003548 
z"/>
<path fill="#283E89" opacity="1.000000" stroke="none" 
	d="
M46.955406,88.999397 
	C43.857853,88.999397 41.238697,88.999397 38.316246,88.999397 
	C38.316246,73.248047 38.316246,58.021973 38.316246,42.024494 
	C43.251396,42.024494 48.198704,41.734512 53.062061,42.244759 
	C54.166981,42.360683 55.770817,45.234154 55.802670,46.864594 
	C56.036606,58.838707 55.746143,70.823700 56.021317,82.796051 
	C56.128487,87.458717 54.904160,89.790192 49.926609,89.016975 
	C49.114368,88.890800 48.265663,88.999344 46.955406,88.999397 
z"/>
<path fill="#283E8A" opacity="1.000000" stroke="none" 
	d="
M223.002167,67.999855 
	C223.002167,58.880611 223.002167,50.261345 223.002167,41.024326 
	C227.854736,41.024326 232.310760,40.788502 236.710709,41.181046 
	C237.891678,41.286407 239.832291,43.292046 239.849289,44.448509 
	C240.064117,59.057529 239.990463,73.670784 239.990463,88.638992 
	C234.339325,88.638992 229.099472,88.638992 223.002167,88.638992 
	C223.002167,81.983887 223.002167,75.241859 223.002167,67.999855 
z"/>
<path fill="#273D88" opacity="1.000000" stroke="none" 
	d="
M139.270630,79.568329 
	C143.732224,85.198494 149.449112,82.233673 154.672516,82.181053 
	C152.813171,90.315857 142.650711,95.745590 133.340912,93.924538 
	C125.233116,92.338615 119.443230,84.172386 120.461266,75.019165 
	C125.469467,75.019165 130.593399,74.747826 135.649979,75.211441 
	C136.901855,75.326225 137.935104,77.825249 139.270630,79.568329 
z"/>
<path fill="#59ADD9" opacity="1.000000" stroke="none" 
	d="
M54.999268,27.311916 
	C54.999245,31.349417 54.999245,34.935371 54.999245,38.763935 
	C50.034019,38.763935 44.275242,38.763935 38.259232,38.763935 
	C38.259232,33.000870 38.259232,27.395552 38.259232,21.391884 
	C43.806332,21.391884 49.463402,21.391884 55.341064,21.391884 
	C55.212700,23.445780 55.105999,25.153074 54.999268,27.311916 
z"/>
<path fill="#273D89" opacity="1.000000" stroke="none" 
	d="
M240.004669,25.204525 
	C240.005783,29.811415 240.005783,33.944744 240.005783,38.533146 
	C234.423294,38.533146 229.088913,38.533146 223.372284,38.533146 
	C223.372284,33.004810 223.372284,27.452208 223.372284,21.046547 
	C228.087906,21.046547 232.983688,20.881517 237.845856,21.211653 
	C238.641083,21.265646 239.288055,23.502825 240.004669,25.204525 
z"/>
<path fill="#5C64A0" opacity="1.000000" stroke="none" 
	d="
M118.055359,16.381557 
	C118.592789,14.810171 119.777122,13.615679 119.901863,12.319233 
	C120.195732,9.265197 119.984291,6.162539 119.959839,2.627299 
	C121.056366,2.466267 122.170334,2.757487 123.639442,3.562835 
	C123.659515,10.331629 123.324440,16.586294 122.989365,22.840961 
	C121.995895,22.235785 120.701668,21.844931 120.081085,20.974043 
	C119.200836,19.738760 118.816780,18.149889 118.055359,16.381557 
z"/>
<path fill="#4F5A9A" opacity="1.000000" stroke="none" 
	d="
M123.402054,22.905182 
	C123.324440,16.586294 123.659515,10.331629 123.989700,3.620602 
	C124.806473,3.744714 125.628128,4.325186 126.864578,5.226130 
	C127.497139,5.772159 127.760406,5.912286 128.069153,5.966985 
	C128.069153,5.966985 128.003448,5.993961 128.009216,6.437307 
	C128.003403,12.193357 127.991821,17.506060 127.980255,22.818764 
	C126.591759,22.868977 125.203255,22.919189 123.402054,22.905182 
z"/>
<path fill="#C6C7DC" opacity="1.000000" stroke="none" 
	d="
M86.504150,2.978135 
	C86.965935,4.435616 87.030067,5.920180 87.072159,7.764399 
	C83.922211,8.616761 80.794296,9.109471 76.682152,9.757218 
	C79.314987,5.285057 81.785477,2.782672 86.504150,2.978135 
z"/>
<path fill="#415094" opacity="1.000000" stroke="none" 
	d="
M128.352905,22.884769 
	C127.991821,17.506060 128.003403,12.193357 128.029541,6.408189 
	C128.954559,6.737360 129.865036,7.538994 130.897003,9.087889 
	C131.007324,14.164352 130.996170,18.493555 130.985001,22.822758 
	C130.231842,22.865431 129.478699,22.908104 128.352905,22.884769 
z"/>
<path fill="#ECECF5" opacity="1.000000" stroke="none" 
	d="
M63.936958,14.994341 
	C63.973965,10.527205 67.865013,10.263306 70.843170,9.073558 
	C71.979233,8.619708 73.448425,8.999732 75.918526,8.999732 
	C72.431129,13.303243 69.195351,15.666987 63.936958,14.994341 
z"/>
<path fill="#374990" opacity="1.000000" stroke="none" 
	d="
M131.316711,22.882608 
	C130.996170,18.493555 131.007324,14.164352 131.031952,9.363146 
	C131.954269,9.716934 132.863129,10.542725 133.890045,12.094851 
	C133.668274,16.161381 133.328430,19.501574 132.988571,22.841768 
	C132.541855,22.875332 132.095139,22.908895 131.316711,22.882608 
z"/>
<path fill="#00017D" opacity="1.000000" stroke="none" 
	d="
M262.391388,87.762474 
	C262.165833,77.278740 262.242096,66.499428 262.572296,55.410221 
	C262.781891,65.889183 262.737549,76.678040 262.391388,87.762474 
z"/>
<path fill="#153F7F" opacity="1.000000" stroke="none" 
	d="
M85.112816,56.511002 
	C85.449440,60.588299 85.862518,65.122940 85.965965,69.664642 
	C86.104622,75.751465 86.003670,81.843750 86.010391,88.389542 
	C85.676628,87.497986 85.055168,86.152695 85.045067,84.802826 
	C84.975624,75.526253 85.034088,66.248718 85.112816,56.511002 
z"/>
<path fill="#202083" opacity="1.000000" stroke="none" 
	d="
M77.363327,87.796425 
	C77.134743,77.632637 77.216309,67.175171 77.534271,56.391800 
	C77.738281,66.544838 77.705879,77.023796 77.363327,87.796425 
z"/>
<path fill="#2B418B" opacity="1.000000" stroke="none" 
	d="
M133.399796,22.901161 
	C133.328430,19.501574 133.668274,16.161381 134.017242,12.376667 
	C135.011673,14.618635 136.277252,17.252335 136.799637,20.026007 
	C136.943436,20.789482 134.868103,21.970909 133.399796,22.901161 
z"/>
<path fill="#172E74" opacity="1.000000" stroke="none" 
	d="
M270.082397,56.328758 
	C270.273285,56.549397 270.414551,57.103672 270.378143,57.826141 
	C270.144562,57.550358 270.088684,57.106380 270.082397,56.328758 
z"/>
<path fill="#415094" opacity="1.000000" stroke="none" 
	d="
M127.977448,5.735972 
	C127.760406,5.912286 127.497139,5.772159 127.147385,5.362717 
	C127.387535,5.068592 127.677650,5.177302 127.977448,5.735972 
z"/>
<path fill="#172E74" opacity="1.000000" stroke="none" 
	d="
M270.226501,88.220253 
	C270.457642,88.114151 270.654175,88.285614 270.906982,88.675598 
	C270.654633,88.895454 270.397522,88.763351 270.226501,88.220253 
z"/>
</svg>