<svg id="svg" version="1.1" xmlns="http://www.w3.org/2000/svg" xmlns:xlink="http://www.w3.org/1999/xlink" width="400" height="400" viewBox="0, 0, 400,400"><g id="svgg"><path id="path0" d="M128.333 183.083 L 128.333 189.167 134.250 189.167 L 140.167 189.167 140.167 183.083 L 140.167 177.000 134.250 177.000 L 128.333 177.000 128.333 183.083 M188.833 185.917 L 188.833 191.667 183.083 191.667 L 177.333 191.667 177.333 197.583 L 177.333 203.500 183.083 203.500 L 188.833 203.500 188.833 208.667 L 188.833 213.833 194.750 213.833 L 200.667 213.833 200.667 208.667 L 200.667 203.500 206.417 203.500 L 212.167 203.500 212.167 197.583 L 212.167 191.667 206.417 191.667 L 200.667 191.667 200.667 185.917 L 200.667 180.167 194.750 180.167 L 188.833 180.167 188.833 185.917 " stroke="none" fill="#54acd4" fill-rule="evenodd"></path><path id="path1" d="M171.750 161.778 C 171.475 161.812,170.612 161.947,169.833 162.079 C 169.054 162.212,168.079 162.365,167.667 162.421 C 165.650 162.692,161.444 163.988,157.833 165.451 C 153.872 167.056,152.807 167.555,150.418 168.926 C 149.131 169.664,147.949 170.317,147.792 170.378 C 146.957 170.698,144.500 172.534,144.500 172.838 C 144.500 173.275,144.536 173.267,145.902 172.526 C 150.413 170.079,160.782 166.803,165.750 166.255 C 169.602 165.830,169.891 165.806,171.692 165.778 C 172.668 165.763,173.432 165.693,173.389 165.622 C 173.346 165.552,173.240 165.538,173.155 165.590 C 173.063 165.647,173.000 164.966,173.000 163.915 C 173.000 162.198,172.838 161.609,172.387 161.692 C 172.312 161.705,172.025 161.744,171.750 161.778 " stroke="none" fill="#b5b6d4" fill-rule="evenodd"></path><path id="path2" d="M174.417 161.511 C 173.683 161.595,172.990 161.677,172.875 161.693 C 172.628 161.728,172.591 162.000,172.833 162.000 C 172.934 162.000,173.000 162.722,173.000 163.833 L 173.000 165.667 172.125 165.697 L 171.250 165.727 172.055 165.790 C 172.497 165.824,172.953 165.775,173.067 165.680 C 173.197 165.572,173.333 165.567,173.432 165.665 C 173.519 165.752,174.001 165.867,174.503 165.921 C 175.006 165.975,175.642 166.051,175.917 166.090 C 176.192 166.129,176.802 166.202,177.272 166.252 C 180.659 166.613,187.000 170.331,187.000 171.955 C 187.000 172.071,187.088 172.167,187.194 172.167 C 187.301 172.167,187.342 172.214,187.284 172.272 C 187.119 172.437,187.484 173.000,187.756 173.000 C 188.026 173.000,188.131 163.131,187.865 162.713 C 187.794 162.601,187.439 162.464,187.076 162.408 C 186.714 162.353,186.080 162.234,185.668 162.144 C 182.855 161.529,177.092 161.205,174.417 161.511 " stroke="none" fill="#7078ac" fill-rule="evenodd"></path><path id="path3" d="M195.796 172.000 C 195.833 175.965,195.799 177.004,195.630 177.019 C 194.827 177.091,197.115 177.316,198.732 177.324 L 200.714 177.333 200.620 175.958 C 200.505 174.276,199.313 170.819,198.681 170.333 C 198.621 170.287,198.313 169.837,197.995 169.333 C 197.353 168.314,196.185 167.000,195.921 167.000 C 195.807 167.000,195.765 168.667,195.796 172.000 M117.917 176.744 C 116.058 177.085,112.799 178.260,112.030 178.866 C 111.878 178.986,111.652 179.158,111.527 179.250 C 107.865 181.937,105.435 186.181,105.062 190.542 L 104.952 191.833 102.726 191.833 L 100.500 191.833 100.500 197.667 L 100.500 203.500 102.750 203.500 L 105.000 203.500 105.000 215.000 L 105.000 226.500 110.917 226.500 L 116.833 226.500 116.833 215.000 L 116.833 203.500 120.500 203.500 L 124.167 203.500 124.167 197.667 L 124.167 191.833 120.477 191.833 L 116.787 191.833 116.879 190.944 C 117.167 188.144,119.659 186.047,122.820 185.941 C 123.451 185.920,123.573 185.857,123.679 185.500 C 123.747 185.271,124.081 184.108,124.422 182.917 C 125.180 180.266,125.852 177.985,125.953 177.717 C 126.250 176.936,120.602 176.251,117.917 176.744 M264.667 183.083 L 264.667 189.167 270.583 189.167 L 276.500 189.167 276.500 183.083 L 276.500 177.000 270.583 177.000 L 264.667 177.000 264.667 183.083 M264.667 209.000 L 264.667 226.333 270.583 226.333 L 276.500 226.333 276.500 209.000 L 276.500 191.667 270.583 191.667 L 264.667 191.667 264.667 209.000 M128.333 209.083 L 128.333 226.333 134.250 226.333 L 140.167 226.333 140.167 209.083 L 140.167 191.833 134.250 191.833 L 128.333 191.833 128.333 209.083 M144.500 209.083 L 144.500 226.333 150.417 226.333 L 156.333 226.333 156.333 214.314 L 156.333 202.295 156.755 201.520 C 158.150 198.956,161.503 198.935,162.856 201.481 L 163.333 202.379 163.333 214.356 L 163.333 226.333 169.254 226.333 L 175.175 226.333 175.129 213.625 L 175.083 200.917 174.543 199.427 C 171.623 191.375,160.505 189.026,156.835 195.685 L 156.339 196.583 156.336 194.208 L 156.333 191.833 150.417 191.833 L 144.500 191.833 144.500 209.083 M214.167 192.042 C 214.167 192.156,214.984 195.925,215.981 200.417 C 216.979 204.908,217.842 208.958,217.899 209.417 C 217.957 209.875,218.567 212.762,219.255 215.833 C 219.943 218.904,220.732 222.457,221.007 223.730 C 221.282 225.002,221.547 226.108,221.596 226.188 C 221.646 226.268,224.338 226.333,227.579 226.333 L 233.471 226.333 233.581 225.625 C 233.692 224.919,234.840 220.354,235.584 217.667 C 236.575 214.088,237.279 211.366,237.321 210.958 C 237.354 210.632,237.667 210.883,237.667 211.236 C 237.667 211.642,237.894 212.849,239.608 221.544 L 240.553 226.337 246.469 226.294 L 252.385 226.250 252.697 225.333 C 252.868 224.829,253.040 224.267,253.079 224.083 C 253.118 223.900,253.198 223.563,253.256 223.333 C 253.315 223.104,253.402 222.729,253.449 222.500 C 253.496 222.271,253.873 220.958,254.286 219.583 C 256.131 213.442,257.289 209.457,257.412 208.833 C 257.527 208.244,258.384 205.285,259.415 201.917 C 260.819 197.332,261.333 195.539,261.333 195.238 C 261.333 195.059,261.521 194.322,261.750 193.600 C 261.979 192.878,262.167 192.185,262.167 192.060 C 262.167 191.874,261.285 191.833,257.246 191.833 L 252.325 191.833 252.186 192.208 C 252.033 192.619,249.907 201.031,248.900 205.208 C 248.262 207.854,248.102 208.214,247.935 207.375 C 247.885 207.123,247.499 205.117,247.077 202.917 C 246.654 200.717,246.127 197.992,245.904 196.862 C 245.682 195.731,245.500 194.615,245.500 194.381 C 245.500 194.147,245.412 193.477,245.304 192.892 L 245.108 191.829 239.194 191.873 L 233.280 191.917 232.304 195.667 C 231.767 197.729,231.032 200.542,230.670 201.917 C 229.979 204.542,229.822 205.202,229.761 205.750 C 229.670 206.571,229.281 207.847,229.161 207.722 C 229.087 207.646,228.765 206.233,228.443 204.583 C 228.122 202.933,227.432 199.390,226.910 196.708 L 225.961 191.833 220.064 191.833 C 215.457 191.833,214.167 191.879,214.167 192.042 M280.667 209.083 L 280.667 226.333 286.583 226.333 L 292.500 226.333 292.505 214.458 L 292.510 202.583 292.881 201.667 C 293.993 198.917,297.379 198.861,299.137 201.563 L 299.583 202.250 299.631 214.292 L 299.679 226.333 305.596 226.333 L 311.512 226.333 311.464 213.708 L 311.416 201.083 310.970 199.861 C 309.153 194.885,304.956 191.914,299.750 191.919 L 297.583 191.920 296.387 192.540 C 294.753 193.385,293.460 194.649,292.931 195.917 L 292.514 196.917 292.507 194.375 L 292.500 191.833 286.583 191.833 L 280.667 191.833 280.667 209.083 M188.836 217.125 C 188.860 220.953,190.134 224.155,192.454 226.218 C 194.321 227.879,194.687 228.136,195.917 228.651 C 200.461 230.557,206.325 229.657,211.445 226.269 L 212.473 225.589 212.926 223.919 C 213.175 223.001,213.416 222.115,213.461 221.950 C 213.543 221.649,213.138 221.651,212.333 221.956 C 212.196 222.008,212.008 222.068,211.917 222.090 C 211.825 222.111,211.300 222.266,210.750 222.433 C 206.356 223.771,202.144 221.581,201.010 217.370 L 200.820 216.667 194.827 216.667 L 188.833 216.667 188.836 217.125 " stroke="none" fill="#244c94" fill-rule="evenodd"></path><path id="path4" d="M187.965 167.748 C 187.997 171.252,187.957 173.000,187.843 173.000 C 187.739 173.000,187.765 173.214,187.907 173.542 C 188.373 174.615,188.423 174.781,188.699 176.196 L 188.917 177.309 192.750 177.302 C 194.897 177.298,196.327 177.240,196.000 177.170 C 195.679 177.100,195.513 177.034,195.630 177.022 C 195.799 177.005,195.833 175.964,195.796 172.000 C 195.767 168.780,195.809 166.975,195.917 166.930 C 196.008 166.891,195.993 166.854,195.884 166.846 C 195.774 166.839,195.474 166.638,195.217 166.400 C 193.625 164.922,191.671 163.786,189.417 163.027 C 188.867 162.841,188.304 162.646,188.167 162.593 C 187.947 162.508,187.923 163.135,187.965 167.748 " stroke="none" fill="#5264a4" fill-rule="evenodd"></path></g></svg>
